# xmcd CD database file
#
# Track frame offsets:
#	150
#	1505
#	11389
#	38938
#	68594
#	117766
#	159936
#	209122
#	256159
#	281662
#	309388
#
# Disc length: 4492 seconds
#
# Revision: 1
# Processed by: cddbd v1.5.2PL0 Copyright (c) Steve Scherf et al.
# Submitted via: CDex 1.70beta2
#
DISCID=83118a0b
DTITLE=Craig Ferguson - American On Purpose
DYEAR=2009
DGENRE=Audiobook - Autobiography
TTITLE0=American On Purpose-01-01
TTITLE1=American On Purpose-01-02
TTITLE2=American On Purpose-01-03
TTITLE3=American On Purpose-01-04
TTITLE4=American On Purpose-01-05
TTITLE5=American On Purpose-01-06
TTITLE6=American On Purpose-01-07
TTITLE7=American On Purpose-01-08
TTITLE8=American On Purpose-01-09
TTITLE9=American On Purpose-01-10
TTITLE10=American On Purpose-01-11
EXTD=YEAR: 2009
EXTT0=
EXTT1=
EXTT2=
EXTT3=
EXTT4=
EXTT5=
EXTT6=
EXTT7=
EXTT8=
EXTT9=
EXTT10=
PLAYORDER=
